<svg xmlns="http://www.w3.org/2000/svg" xmlns:xlink="http://www.w3.org/1999/xlink" width="2000" zoomAndPan="magnify" viewBox="0 0 1500 749.999995" height="1000" preserveAspectRatio="xMidYMid meet" version="1.0"><defs><filter x="0%" y="0%" width="100%" height="100%" id="484fb51627"><feColorMatrix values="0 0 0 0 1 0 0 0 0 1 0 0 0 0 1 0 0 0 1 0" color-interpolation-filters="sRGB"/></filter><clipPath id="abb0bebef3"><path d="M 0 0 L 1454 0 L 1454 750 L 0 750 Z M 0 0 " clip-rule="nonzero"/></clipPath><clipPath id="11c9c8e75d"><path d="M -530.824219 -783.117188 L 1453.664062 -1039.648438 L 1794.042969 1593.441406 L -190.445312 1849.976562 Z M -530.824219 -783.117188 " clip-rule="nonzero"/></clipPath><clipPath id="78d46c40f9"><path d="M -190.433594 1850.078125 L 1794.054688 1593.546875 L 1453.675781 -1039.542969 L -530.808594 -783.011719 Z M -190.433594 1850.078125 " clip-rule="nonzero"/></clipPath><clipPath id="830234af03"><path d="M 0 0 L 888 0 L 888 750 L 0 750 Z M 0 0 " clip-rule="nonzero"/></clipPath><clipPath id="a8232b5d55"><path d="M -502.351562 -407.972656 L 887.089844 -587.585938 L 1125.351562 1255.578125 L -264.085938 1435.191406 Z M -502.351562 -407.972656 " clip-rule="nonzero"/></clipPath><clipPath id="263346a345"><path d="M -264.078125 1435.261719 L 1125.363281 1255.648438 L 887.097656 -587.515625 L -502.339844 -407.902344 Z M -264.078125 1435.261719 " clip-rule="nonzero"/></clipPath><mask id="4fb22dd8b0"><g filter="url(#484fb51627)"><rect x="-150" width="1800" fill="#000000" y="-74.999999" height="899.999994" fill-opacity="0.34"/></g></mask><clipPath id="10ea26380f"><path d="M 0 0 L 1174 0 L 1174 750 L 0 750 Z M 0 0 " clip-rule="nonzero"/></clipPath><clipPath id="e506835be7"><path d="M -304.804688 -576.847656 L 1173.890625 -767.996094 L 1427.539062 1194.175781 L -51.15625 1385.328125 Z M -304.804688 -576.847656 " clip-rule="nonzero"/></clipPath><clipPath id="99d3b293b7"><path d="M -51.191406 1385.058594 L 1427.503906 1193.910156 L 1173.855469 -768.265625 L -304.839844 -577.113281 Z M -51.191406 1385.058594 " clip-rule="nonzero"/></clipPath><clipPath id="9be5d0a5d7"><rect x="0" width="1429" y="0" height="750"/></clipPath><mask id="ee7ee06111"><g filter="url(#484fb51627)"><rect x="-150" width="1800" fill="#000000" y="-74.999999" height="899.999994" fill-opacity="0.54"/></g></mask><clipPath id="bb145a8da5"><path d="M 0 0 L 1209.292969 0 L 1209.292969 750 L 0 750 Z M 0 0 " clip-rule="nonzero"/></clipPath><clipPath id="4f725cae7a"><rect x="0" width="1211" y="0" height="750"/></clipPath></defs><g clip-path="url(#abb0bebef3)"><g clip-path="url(#11c9c8e75d)"><g clip-path="url(#78d46c40f9)"><path fill="#fb5f46" d="M -82.414062 1835.855469 C -118.585938 1840.675781 -155.1875 1842.167969 -191.65625 1840.628906 L -530.808594 -782.988281 L 1453.976562 -1039.558594 C 1425.449219 -1025.078125 1397.289062 -1009.945312 1370.207031 -992.894531 C 1302.953125 -950.542969 1241.183594 -894.433594 1209.847656 -821.390625 C 1187.058594 -768.273438 1181.613281 -709.011719 1185.585938 -651.347656 C 1189.558594 -593.683594 1202.574219 -537.070312 1215.488281 -480.730469 C 1228.386719 -424.390625 1241.277344 -367.746094 1244.976562 -310.0625 C 1248.6875 -252.390625 1242.816406 -193.132812 1219.539062 -140.226562 C 1193.617188 -81.363281 1147.265625 -33.171875 1094.28125 3.296875 C 1041.304688 39.769531 981.660156 65.359375 921.511719 88.140625 C 861.363281 110.929688 800.148438 131.214844 741.785156 158.257812 C 683.417969 185.296875 627.480469 219.578125 583.511719 266.527344 C 534.140625 319.238281 501.628906 386.3125 483.660156 456.273438 C 465.710938 526.226562 461.769531 599.164062 464.601562 671.328125 C 470.257812 815.671875 502.609375 958.484375 500.800781 1102.921875 C 498.910156 1253.574219 458.550781 1404.75 377.589844 1531.828125 C 296.636719 1658.925781 174.257812 1760.746094 31.589844 1809.226562 C -5.441406 1821.8125 -43.675781 1830.664062 -82.414062 1835.855469 Z M -82.414062 1835.855469 " fill-opacity="1" fill-rule="nonzero"/></g></g></g><g clip-path="url(#830234af03)"><g clip-path="url(#a8232b5d55)"><g clip-path="url(#263346a345)"><path fill="#ef5840" d="M -188.464844 1425.304688 C -213.78125 1428.675781 -239.40625 1429.722656 -264.933594 1428.644531 L -502.339844 -407.882812 L 887.007812 -587.484375 C 867.039062 -577.34375 847.324219 -566.753906 828.371094 -554.820312 C 781.292969 -525.171875 738.054688 -485.894531 716.117188 -434.765625 C 700.164062 -397.585938 696.355469 -356.101562 699.136719 -315.734375 C 701.917969 -275.371094 711.027344 -235.742188 720.066406 -196.304688 C 729.097656 -156.867188 738.117188 -117.214844 740.707031 -76.835938 C 743.304688 -36.464844 739.195312 5.015625 722.902344 42.050781 C 704.757812 83.253906 672.3125 116.988281 635.222656 142.515625 C 598.136719 168.042969 556.386719 185.957031 514.285156 201.90625 C 472.179688 217.855469 429.328125 232.058594 388.476562 250.988281 C 347.617188 269.914062 308.460938 293.914062 277.683594 326.773438 C 243.125 363.675781 220.367188 410.625 207.789062 459.597656 C 195.222656 508.566406 192.464844 559.621094 194.445312 610.136719 C 198.40625 711.175781 221.050781 811.144531 219.785156 912.25 C 218.460938 1017.707031 190.210938 1123.53125 133.539062 1212.484375 C 76.871094 1301.453125 -8.792969 1372.726562 -108.660156 1406.664062 C -134.582031 1415.472656 -161.347656 1421.667969 -188.464844 1425.304688 Z M -188.464844 1425.304688 " fill-opacity="1" fill-rule="nonzero"/></g></g></g><g mask="url(#4fb22dd8b0)"><g transform="matrix(1, 0, 0, 1, 0, -0.000000000000042435)"><g clip-path="url(#9be5d0a5d7)"><g clip-path="url(#10ea26380f)"><g clip-path="url(#e506835be7)"><g clip-path="url(#99d3b293b7)"><path fill="#f45238" d="M 29.289062 1374.457031 C 2.339844 1378.046875 -24.933594 1379.160156 -52.101562 1378.015625 L -304.792969 -576.746094 L 1173.996094 -767.910156 C 1152.742188 -757.121094 1131.761719 -745.84375 1111.585938 -733.140625 C 1061.476562 -701.585938 1015.453125 -659.78125 992.105469 -605.359375 C 975.125 -565.785156 971.070312 -521.628906 974.03125 -478.667969 C 976.992188 -435.703125 986.6875 -393.523438 996.308594 -351.546875 C 1005.921875 -309.570312 1015.523438 -267.367188 1018.277344 -224.390625 C 1021.042969 -181.417969 1016.671875 -137.265625 999.324219 -97.847656 C 980.011719 -53.992188 945.480469 -18.085938 906.003906 9.085938 C 866.53125 36.257812 822.089844 55.324219 777.277344 72.296875 C 732.460938 89.277344 686.851562 104.390625 643.371094 124.539062 C 599.882812 144.6875 558.203125 170.230469 525.445312 205.207031 C 488.660156 244.480469 464.4375 294.457031 451.050781 346.582031 C 437.675781 398.699219 434.742188 453.042969 436.851562 506.8125 C 441.066406 614.355469 465.167969 720.761719 463.820312 828.375 C 462.410156 940.621094 432.34375 1053.253906 372.019531 1147.9375 C 311.707031 1242.632812 220.523438 1318.496094 114.230469 1354.617188 C 86.640625 1363.992188 58.148438 1370.589844 29.289062 1374.457031 Z M 29.289062 1374.457031 " fill-opacity="1" fill-rule="nonzero"/></g></g></g></g></g></g><g mask="url(#ee7ee06111)"><g transform="matrix(1, 0, 0, 1, 0, -0.000000000000042435)"><g clip-path="url(#4f725cae7a)"><g clip-path="url(#bb145a8da5)"><path fill="#f1533a" d="M -115.445312 1270.816406 C -140.984375 1270.917969 -166.53125 1268.671875 -191.707031 1264.328125 L -191.707031 -587.480469 L 1209.199219 -587.480469 C 1188.09375 -579.988281 1167.183594 -572.007812 1146.855469 -562.605469 C 1096.363281 -539.238281 1048.449219 -505.828125 1020.136719 -457.933594 C 999.550781 -423.105469 990.453125 -382.449219 988.035156 -342.0625 C 985.621094 -301.675781 989.574219 -261.203125 993.484375 -220.933594 C 997.382812 -180.664062 1001.246094 -140.183594 998.636719 -99.804688 C 996.039062 -59.433594 986.648438 -18.824219 965.738281 15.816406 C 942.460938 54.355469 905.957031 83.648438 865.902344 104.214844 C 825.851562 124.777344 782.148438 137.191406 738.347656 147.609375 C 694.546875 158.03125 650.226562 166.621094 607.285156 180.15625 C 564.339844 193.691406 522.425781 212.46875 487.691406 241.113281 C 448.6875 273.28125 420.097656 316.925781 401.34375 363.882812 C 382.605469 410.832031 373.324219 461.113281 368.8125 511.46875 C 359.789062 612.179688 369.429688 714.230469 355.210938 814.335938 C 340.378906 918.753906 298.796875 1020.082031 231.1875 1101.035156 C 163.582031 1182.003906 69.484375 1241.707031 -33.910156 1262.5625 C -60.746094 1267.976562 -88.085938 1270.6875 -115.445312 1270.816406 Z M -115.445312 1270.816406 " fill-opacity="1" fill-rule="nonzero"/></g></g></g></g></svg>