<svg xmlns="http://www.w3.org/2000/svg" xmlns:xlink="http://www.w3.org/1999/xlink" width="1080" zoomAndPan="magnify" viewBox="0 0 810 809.999993" height="1080" preserveAspectRatio="xMidYMid meet" version="1.0"><defs><clipPath id="bb986d09d3"><path d="M 406 215 L 424 215 L 424 238.96875 L 406 238.96875 Z M 406 215 " clip-rule="nonzero"/></clipPath></defs><path fill="#f9e8de" d="M 728.886719 416.503906 C 728.886719 417.351562 728.886719 418.203125 728.871094 419.035156 C 728.453125 439.296875 725.5625 459.421875 719.652344 478.832031 C 717.746094 485.105469 715.550781 491.335938 713.019531 497.425781 C 705.121094 516.464844 693.09375 534.210938 677.921875 548.421875 C 668.871094 556.933594 658.691406 564.164062 647.597656 569.671875 C 613.570312 586.625 581.992188 574.011719 545.835938 573.746094 C 521.988281 573.621094 497.960938 574.96875 474.53125 579.824219 L 137.023438 579.824219 C 132.613281 569.558594 128.886719 559.089844 125.828125 548.421875 C 119.292969 525.769531 115.84375 502.363281 115.332031 478.832031 C 114.84375 455.386719 117.304688 431.828125 122.714844 408.8125 C 196.636719 408.398438 306.929688 407.6875 306.929688 407.6875 C 306.929688 401.777344 286.589844 400.652344 272.140625 400.082031 C 257.914062 399.523438 250.042969 398.96875 250.042969 398.953125 C 250.253906 398.953125 243.480469 376.996094 226.199219 376.996094 C 208.898438 376.996094 206.285156 385.578125 206.285156 385.578125 C 206.285156 385.578125 199.609375 352.074219 188.652344 352.074219 C 177.722656 352.074219 175.972656 380.375 175.972656 380.375 C 175.972656 380.375 166.695312 364.746094 152.777344 370.65625 C 140.195312 376.007812 140.625 389.09375 140.625 389.09375 C 140.625 389.09375 134.714844 383.128906 129.320312 385.285156 C 134.894531 368.304688 142.125 351.757812 150.996094 335.945312 C 222.304688 208.753906 378.695312 116.222656 526.023438 149.511719 C 527.386719 149.847656 528.71875 150.152344 530.097656 150.5 C 530.929688 150.652344 531.777344 150.875 532.613281 151.113281 C 536.953125 152.183594 541.277344 153.433594 545.558594 154.785156 C 556.738281 158.300781 567.640625 162.65625 578.070312 167.84375 C 586.300781 171.972656 594.226562 176.574219 601.847656 181.707031 C 610.636719 187.671875 619.105469 193.875 627.128906 200.371094 C 633.511719 205.488281 639.640625 210.757812 645.46875 216.277344 C 655.203125 225.402344 664.171875 235.082031 672.359375 245.453125 C 670.859375 245.078125 669.261719 244.871094 667.5625 244.871094 C 650.265625 244.871094 647.652344 253.464844 647.652344 253.464844 C 647.652344 253.464844 640.976562 219.964844 630.046875 219.964844 C 619.089844 219.964844 617.339844 248.25 617.339844 248.25 C 617.339844 248.25 608.0625 232.617188 594.144531 238.542969 C 581.558594 243.898438 581.992188 256.984375 581.992188 256.984375 C 581.992188 256.984375 576.054688 250.976562 570.617188 253.1875 C 561.3125 256.984375 562.730469 267.96875 562.730469 267.96875 C 562.730469 267.96875 550.914062 258.109375 545.015625 268.527344 C 545.015625 268.527344 443.46875 265.714844 442.382812 271.054688 C 441.285156 276.410156 472.585938 276.964844 502.121094 276.964844 C 522.003906 276.964844 626.613281 276.328125 692.914062 275.910156 C 693.621094 277.160156 694.316406 278.425781 695.011719 279.691406 C 700.714844 290.054688 705.71875 301.011719 709.988281 312.621094 C 718.277344 335.082031 724.214844 358.863281 727.035156 382.949219 C 728.386719 394.074219 729.011719 405.324219 728.886719 416.503906 Z M 728.886719 416.503906 " fill-opacity="1" fill-rule="nonzero"/><path fill="#efbf62" d="M 593.378906 558.601562 C 577.222656 589.320312 460.863281 614.367188 431.785156 609.511719 C 417.519531 607.136719 392.015625 607.09375 360.9375 608.234375 C 348.5625 608.679688 335.324219 609.332031 321.546875 610.082031 C 299.339844 611.308594 275.796875 612.835938 252.394531 614.367188 C 178.058594 619.21875 133.617188 592.546875 132.808594 585.261719 C 131.988281 578 155.433594 515.769531 194.214844 477.777344 C 232.996094 439.796875 256.441406 430.105469 322.714844 425.25 C 388.972656 420.398438 485.933594 461.617188 485.933594 461.617188 C 485.933594 461.617188 609.550781 527.882812 593.378906 558.601562 Z M 593.378906 558.601562 " fill-opacity="1" fill-rule="nonzero"/><path fill="#563025" d="M 380.289062 347.234375 L 389.171875 342.230469 L 531.609375 595.144531 L 522.726562 600.148438 Z M 380.289062 347.234375 " fill-opacity="1" fill-rule="nonzero"/><path fill="#563025" d="M 510.394531 282.085938 L 486.613281 239.890625 L 460.207031 250.601562 L 481.023438 229.960938 L 482.25 222.621094 L 477.828125 224.289062 L 446.34375 168.398438 L 201.433594 306.363281 L 201.308594 305.949219 L 195.0625 303.292969 L 193.839844 310.632812 L 205.617188 331.550781 L 225.070312 324.039062 L 216.976562 336.847656 L 213.765625 336.515625 L 212.542969 343.855469 L 233.804688 381.585938 L 261.167969 360.863281 L 242.410156 382.199219 L 238.601562 380.585938 L 237.378906 387.925781 L 261.167969 430.175781 L 510.476562 289.734375 L 510.53125 289.789062 L 513.675781 287.925781 L 514.898438 280.582031 Z M 510.394531 282.085938 " fill-opacity="1" fill-rule="nonzero"/><path fill="#a05839" d="M 482.25 222.621094 L 461.433594 243.257812 L 487.839844 232.550781 L 514.898438 280.582031 L 262.394531 422.832031 L 238.601562 380.585938 L 262.394531 353.535156 L 235.027344 374.257812 L 213.765625 336.515625 L 226.292969 316.699219 L 206.839844 324.207031 L 195.0625 303.292969 L 447.570312 161.054688 Z M 482.25 222.621094 " fill-opacity="1" fill-rule="nonzero"/><path fill="#f9e8de" d="M 314.816406 312.957031 L 293.402344 325.015625 L 288.453125 316.226562 L 292.359375 276.078125 L 304.527344 269.222656 L 320.390625 297.394531 L 325.621094 294.445312 L 330.933594 303.875 L 325.703125 306.824219 L 330.375 315.113281 L 319.472656 321.246094 Z M 310.269531 303.082031 L 301.148438 286.894531 L 299.5625 309.117188 Z M 310.269531 303.082031 " fill-opacity="1" fill-rule="nonzero"/><path fill="#f9e8de" d="M 332.128906 251.574219 C 345.378906 244.105469 355.628906 251.433594 363.316406 265.0625 C 371.074219 278.832031 372.023438 291.386719 358.757812 298.855469 C 345.503906 306.324219 335.257812 298.996094 327.496094 285.242188 C 319.820312 271.597656 318.875 259.042969 332.128906 251.574219 Z M 337.871094 261.765625 C 331.433594 265.394531 334.1875 272.070312 338.203125 279.207031 C 342.363281 286.605469 346.574219 292.292969 353.011719 288.660156 C 359.453125 285.03125 356.769531 278.484375 352.609375 271.097656 C 348.589844 263.949219 344.308594 258.136719 337.871094 261.765625 Z M 337.871094 261.765625 " fill-opacity="1" fill-rule="nonzero"/><path fill="#f9e8de" d="M 399.511719 265.242188 L 378.097656 277.300781 L 373.148438 268.511719 L 377.054688 228.363281 L 389.222656 221.507812 L 405.089844 249.683594 L 410.316406 246.734375 L 415.628906 256.164062 L 410.398438 259.109375 L 415.074219 267.398438 L 404.171875 273.53125 Z M 394.964844 255.371094 L 385.84375 239.183594 L 384.257812 261.40625 Z M 394.964844 255.371094 " fill-opacity="1" fill-rule="nonzero"/><path fill="#f9e8de" d="M 268.941406 377.550781 L 263.324219 380.710938 L 265.714844 384.949219 L 270.707031 382.140625 L 271.792969 384.074219 L 266.800781 386.882812 L 269.289062 391.320312 L 274.90625 388.164062 L 275.992188 390.097656 L 268.011719 394.589844 L 259.863281 380.113281 L 267.84375 375.605469 Z M 268.941406 377.550781 " fill-opacity="1" fill-rule="nonzero"/><path fill="#f9e8de" d="M 277.855469 370.015625 C 281.289062 368.082031 284.085938 369.109375 285.40625 371.460938 C 286.367188 373.171875 286.476562 375.507812 284.390625 377.484375 L 291.34375 381.460938 L 288.519531 383.058594 L 281.929688 379.152344 L 280.121094 380.167969 L 283.375 385.953125 L 280.996094 387.289062 L 272.847656 372.839844 Z M 278.941406 371.949219 L 276.324219 373.421875 L 279.050781 378.261719 L 281.664062 376.789062 C 283.515625 375.746094 283.777344 374.257812 282.957031 372.824219 C 282.152344 371.363281 280.789062 370.90625 278.941406 371.949219 Z M 278.941406 371.949219 " fill-opacity="1" fill-rule="nonzero"/><path fill="#f9e8de" d="M 293.066406 361.433594 C 296.503906 359.5 299.296875 360.53125 300.617188 362.882812 C 301.578125 364.589844 301.6875 366.929688 299.601562 368.902344 L 306.554688 372.878906 L 303.734375 374.480469 L 297.140625 370.570312 L 295.335938 371.585938 L 298.589844 377.371094 L 296.210938 378.707031 L 288.074219 364.257812 Z M 294.152344 363.367188 L 291.539062 364.84375 L 294.261719 369.679688 L 296.878906 368.207031 C 298.726562 367.164062 298.992188 365.675781 298.183594 364.242188 C 297.363281 362.796875 296.015625 362.324219 294.152344 363.367188 Z M 294.152344 363.367188 " fill-opacity="1" fill-rule="nonzero"/><path fill="#f9e8de" d="M 318.109375 366.566406 C 314.035156 368.859375 309.003906 367.664062 306.554688 363.324219 C 304.121094 359 305.707031 354.078125 309.78125 351.785156 C 313.898438 349.460938 318.890625 350.683594 321.324219 355.011719 C 323.769531 359.347656 322.226562 364.242188 318.109375 366.566406 Z M 316.957031 364.507812 C 319.820312 362.894531 320.738281 359.640625 318.902344 356.371094 C 317.066406 353.105469 313.828125 352.242188 310.964844 353.855469 C 308.097656 355.46875 307.167969 358.679688 309.003906 361.949219 C 310.839844 365.203125 314.078125 366.121094 316.957031 364.507812 Z M 316.957031 364.507812 " fill-opacity="1" fill-rule="nonzero"/><path fill="#f9e8de" d="M 326.675781 342.507812 C 330.109375 340.574219 332.90625 341.605469 334.226562 343.953125 C 335.1875 345.664062 335.296875 348 333.210938 349.976562 L 340.164062 353.953125 L 337.34375 355.550781 L 330.75 351.644531 L 328.941406 352.660156 L 332.195312 358.445312 L 329.820312 359.78125 L 321.683594 345.332031 Z M 327.761719 344.441406 L 325.148438 345.914062 L 327.871094 350.753906 L 330.488281 349.28125 C 332.335938 348.238281 332.601562 346.75 331.792969 345.316406 C 330.972656 343.871094 329.609375 343.398438 327.761719 344.441406 Z M 327.761719 344.441406 " fill-opacity="1" fill-rule="nonzero"/><path fill="#f9e8de" d="M 356.253906 325.820312 L 364.402344 340.296875 L 362.023438 341.632812 L 348.8125 334.859375 L 354.890625 345.652344 L 352.511719 346.984375 L 344.363281 332.507812 L 346.726562 331.175781 L 359.925781 337.933594 L 353.863281 327.15625 Z M 356.253906 325.820312 " fill-opacity="1" fill-rule="nonzero"/><path fill="#f9e8de" d="M 376.277344 333.800781 C 372.203125 336.097656 367.167969 334.902344 364.722656 330.5625 C 362.289062 326.238281 363.875 321.316406 367.949219 319.019531 C 372.0625 316.699219 377.054688 317.921875 379.488281 322.246094 C 381.9375 326.585938 380.394531 331.480469 376.277344 333.800781 Z M 375.121094 331.746094 C 377.988281 330.132812 378.90625 326.878906 377.070312 323.609375 C 375.234375 320.339844 371.992188 319.480469 369.128906 321.09375 C 366.265625 322.707031 365.332031 325.917969 367.167969 329.1875 C 369.003906 332.453125 372.246094 333.359375 375.121094 331.746094 Z M 375.121094 331.746094 " fill-opacity="1" fill-rule="nonzero"/><path fill="#f9e8de" d="M 379.097656 312.96875 L 389.179688 307.28125 L 390.265625 309.214844 L 386.414062 311.386719 L 393.464844 323.902344 L 391.085938 325.234375 L 384.035156 312.71875 L 380.171875 314.902344 Z M 379.097656 312.96875 " fill-opacity="1" fill-rule="nonzero"/><path fill="#f9e8de" d="M 401.140625 300.566406 L 409.648438 295.769531 L 410.734375 297.703125 L 404.601562 301.164062 L 407.007812 305.433594 L 411.789062 302.734375 L 412.875 304.667969 L 408.09375 307.367188 L 411.652344 313.695312 L 409.273438 315.027344 Z M 401.140625 300.566406 " fill-opacity="1" fill-rule="nonzero"/><path fill="#f9e8de" d="M 428.742188 304.238281 C 424.667969 306.53125 419.632812 305.335938 417.1875 300.996094 C 414.753906 296.671875 416.335938 291.75 420.410156 289.453125 C 424.527344 287.132812 429.519531 288.355469 431.953125 292.679688 C 434.402344 297.035156 432.855469 301.929688 428.742188 304.238281 Z M 427.585938 302.179688 C 430.453125 300.566406 431.371094 297.3125 429.519531 294.042969 C 427.683594 290.777344 424.457031 289.914062 421.578125 291.527344 C 418.714844 293.140625 417.785156 296.351562 419.621094 299.621094 C 421.453125 302.886719 424.707031 303.804688 427.585938 302.179688 Z M 427.585938 302.179688 " fill-opacity="1" fill-rule="nonzero"/><path fill="#f9e8de" d="M 432.285156 283.015625 L 434.652344 281.679688 L 439.835938 290.902344 C 441.101562 293.152344 442.964844 293.488281 444.96875 292.375 C 446.984375 291.234375 447.652344 289.46875 446.386719 287.214844 L 441.199219 277.996094 L 443.5625 276.660156 L 448.722656 285.839844 C 450.796875 289.523438 449.113281 292.765625 446.109375 294.460938 C 443.078125 296.171875 439.503906 295.878906 437.433594 292.195312 Z M 432.285156 283.015625 " fill-opacity="1" fill-rule="nonzero"/><path fill="#f9e8de" d="M 460.597656 267.039062 L 468.746094 281.515625 L 466.367188 282.847656 L 453.160156 276.078125 L 459.234375 286.867188 L 456.859375 288.203125 L 448.710938 273.726562 L 451.074219 272.390625 L 464.269531 279.148438 L 458.234375 268.371094 Z M 460.597656 267.039062 " fill-opacity="1" fill-rule="nonzero"/><path fill="#f9e8de" d="M 482.304688 264.421875 C 484.808594 268.871094 483.304688 273.308594 478.675781 275.921875 L 473.945312 278.578125 L 465.8125 264.132812 L 470.539062 261.476562 C 475.171875 258.859375 479.789062 259.957031 482.304688 264.421875 Z M 477.578125 273.992188 C 480.984375 272.070312 481.71875 269.082031 479.871094 265.800781 C 478.007812 262.488281 475.03125 261.488281 471.625 263.40625 L 469.273438 264.730469 L 475.242188 275.3125 Z M 477.578125 273.992188 " fill-opacity="1" fill-rule="nonzero"/><path fill="#563025" d="M 272.195312 402.933594 C 272.195312 402.933594 273.53125 402.113281 275.851562 400.664062 C 278.203125 399.261719 281.511719 397.1875 285.546875 394.808594 C 289.589844 392.445312 294.261719 389.625 299.339844 386.703125 C 304.402344 383.769531 309.835938 380.679688 315.261719 377.609375 C 320.710938 374.5625 326.148438 371.503906 331.292969 368.707031 C 336.425781 365.886719 341.25 363.339844 345.378906 361.113281 C 349.496094 358.890625 352.984375 357.136719 355.40625 355.859375 C 357.839844 354.621094 359.230469 353.910156 359.230469 353.910156 C 359.230469 353.910156 357.894531 354.730469 355.570312 356.179688 C 353.222656 357.582031 349.914062 359.65625 345.878906 362.03125 C 341.832031 364.398438 337.160156 367.21875 332.085938 370.140625 C 327.023438 373.074219 321.585938 376.160156 316.164062 379.234375 C 310.714844 382.28125 305.261719 385.339844 300.132812 388.136719 C 295 390.957031 290.160156 393.503906 286.046875 395.726562 C 281.929688 397.953125 278.4375 399.707031 276.019531 400.984375 C 273.585938 402.222656 272.195312 402.933594 272.195312 402.933594 Z M 272.195312 402.933594 " fill-opacity="1" fill-rule="nonzero"/><path fill="#563025" d="M 400.195312 214.972656 C 400.195312 214.972656 400.734375 214.597656 401.695312 213.914062 C 402.667969 213.273438 404.03125 212.316406 405.714844 211.257812 C 407.410156 210.214844 409.355469 208.9375 411.5 207.671875 C 413.625 206.378906 415.933594 205.070312 418.230469 203.75 C 420.550781 202.46875 422.875 201.175781 425.070312 200.023438 C 427.265625 198.855469 429.367188 197.851562 431.132812 196.933594 C 432.914062 196.03125 434.441406 195.378906 435.484375 194.863281 C 436.554688 194.390625 437.167969 194.125 437.167969 194.125 C 437.167969 194.125 436.625 194.5 435.667969 195.183594 C 434.691406 195.820312 433.328125 196.796875 431.648438 197.839844 C 429.949219 198.882812 428.003906 200.160156 425.863281 201.425781 C 423.734375 202.71875 421.425781 204.027344 419.132812 205.347656 C 416.808594 206.628906 414.488281 207.921875 412.292969 209.074219 C 410.09375 210.242188 407.996094 211.246094 406.230469 212.164062 C 404.449219 213.066406 402.917969 213.71875 401.875 214.234375 C 400.804688 214.691406 400.195312 214.972656 400.195312 214.972656 Z M 400.195312 214.972656 " fill-opacity="1" fill-rule="nonzero"/><path fill="#563025" d="M 247.359375 329.785156 C 247.359375 329.785156 247.902344 329.40625 248.863281 328.726562 C 249.835938 328.085938 251.199219 327.128906 252.882812 326.070312 C 254.578125 325.027344 256.523438 323.75 258.667969 322.484375 C 260.792969 321.1875 263.101562 319.882812 265.394531 318.5625 C 267.71875 317.28125 270.039062 315.988281 272.238281 314.835938 C 274.433594 313.664062 276.535156 312.664062 278.300781 311.746094 C 280.082031 310.84375 281.609375 310.1875 282.652344 309.675781 C 283.722656 309.203125 284.335938 308.9375 284.335938 308.9375 C 284.335938 308.9375 283.792969 309.3125 282.832031 309.996094 C 281.859375 310.632812 280.496094 311.609375 278.816406 312.652344 C 277.117188 313.695312 275.171875 314.972656 273.03125 316.238281 C 270.902344 317.53125 268.59375 318.839844 266.300781 320.160156 C 263.976562 321.441406 261.65625 322.734375 259.457031 323.886719 C 257.261719 325.054688 255.160156 326.058594 253.394531 326.972656 C 251.617188 327.878906 250.085938 328.53125 249.042969 329.046875 C 247.972656 329.519531 247.359375 329.785156 247.359375 329.785156 Z M 247.359375 329.785156 " fill-opacity="1" fill-rule="nonzero"/><path fill="#efbf62" d="M 539.246094 617.605469 C 531.125 622.710938 518.164062 622.558594 501.035156 620.402344 C 489.714844 618.957031 476.535156 616.632812 461.710938 614.367188 C 424.542969 608.707031 415.933594 605.203125 412.804688 587.289062 C 406.285156 550.300781 466.773438 573.46875 513.394531 577.195312 C 531.167969 578.613281 537.757812 578.753906 544.125 586.46875 C 549.746094 593.367188 550.148438 610.722656 539.246094 617.605469 Z M 539.246094 617.605469 " fill-opacity="1" fill-rule="nonzero"/><path fill="#efbf62" d="M 364.707031 621.625 C 366.179688 635.226562 353.484375 636.921875 328.441406 633.292969 C 327.425781 633.183594 326.175781 633.070312 325.035156 632.835938 C 297.726562 628.636719 293.761719 585.234375 293.761719 585.234375 L 303.734375 498.761719 C 303.734375 498.761719 344.863281 519.609375 344.292969 544.097656 C 343.722656 568.460938 327.984375 590.335938 339.429688 604.839844 C 339.429688 604.839844 341.234375 605.0625 343.960938 605.632812 C 350.886719 607.121094 363.691406 611.308594 364.707031 621.625 Z M 364.707031 621.625 " fill-opacity="1" fill-rule="nonzero"/><path fill="#f9e8de" d="M 364.707031 621.625 C 366.179688 635.226562 353.484375 636.921875 328.441406 633.292969 C 327.425781 632.152344 326.621094 630.804688 325.953125 629.332031 C 318.25 612.101562 335.355469 607.011719 343.976562 605.648438 C 350.886719 607.121094 363.691406 611.308594 364.707031 621.625 Z M 364.707031 621.625 " fill-opacity="1" fill-rule="nonzero"/><path fill="#563025" d="M 343.976562 606.507812 C 343.695312 606.507812 343.417969 606.371094 343.25 606.121094 C 336.480469 595.953125 338.621094 581.992188 340.902344 567.195312 C 342.054688 559.6875 343.25 551.914062 343.445312 544.027344 C 343.835938 528.078125 325.46875 513.488281 314.46875 506.203125 C 308.210938 502.058594 303.359375 499.582031 303.300781 499.570312 C 302.871094 499.347656 302.703125 498.832031 302.914062 498.398438 C 303.136719 497.96875 303.648438 497.800781 304.082031 498.011719 C 304.121094 498.039062 309.074219 500.542969 315.414062 504.753906 C 340.402344 521.304688 345.378906 535.265625 345.15625 544.070312 C 344.960938 552.066406 343.753906 559.882812 342.585938 567.460938 C 340.261719 582.535156 338.261719 595.550781 344.65625 605.160156 C 344.921875 605.5625 344.808594 606.09375 344.417969 606.355469 C 344.308594 606.46875 344.140625 606.507812 343.976562 606.507812 Z M 343.976562 606.507812 " fill-opacity="1" fill-rule="nonzero"/><path fill="#efbf62" d="M 614.625 598.804688 C 609.121094 606.148438 598.136719 612.363281 586.84375 616.425781 C 572.019531 621.710938 556.683594 623.28125 552.207031 618.804688 C 544.308594 610.945312 540.664062 595.789062 550.382812 586.066406 C 553.359375 583.089844 559.0625 579.628906 565.847656 575.929688 C 581.183594 567.472656 602.042969 557.640625 609.160156 549.117188 C 609.148438 549.117188 627.320312 581.8125 614.625 598.804688 Z M 614.625 598.804688 " fill-opacity="1" fill-rule="nonzero"/><path fill="#efbf62" d="M 172.398438 566.679688 C 172.398438 566.679688 158.660156 590.515625 187.75 594.160156 C 216.839844 597.804688 245.929688 580.019531 278.246094 583.660156 C 310.558594 587.304688 350.566406 629.71875 337.230469 646.699219 C 323.894531 663.664062 309.753906 631.75 279.453125 629.734375 C 249.15625 627.71875 195.828125 646.296875 159.871094 636.601562 C 123.910156 626.910156 122.699219 609.527344 132.796875 585.289062 " fill-opacity="1" fill-rule="nonzero"/><path fill="#563025" d="M 337.246094 647.546875 C 337.050781 647.546875 336.871094 647.492188 336.714844 647.367188 C 336.339844 647.074219 336.269531 646.53125 336.5625 646.144531 C 340.554688 641.054688 338.925781 634.074219 336.839844 629.109375 C 329.125 610.667969 301.8125 587.164062 278.160156 584.507812 C 261.878906 582.671875 246.277344 586.359375 231.203125 589.933594 C 216.226562 593.480469 202.101562 596.816406 187.636719 595.023438 C 178.433594 593.867188 172.425781 590.601562 169.785156 585.289062 C 165.613281 576.902344 171.398438 566.695312 171.648438 566.265625 C 171.882812 565.847656 172.410156 565.707031 172.828125 565.945312 C 173.246094 566.179688 173.386719 566.710938 173.148438 567.125 C 173.09375 567.222656 167.585938 576.984375 171.339844 584.523438 C 173.707031 589.28125 179.265625 592.226562 187.859375 593.3125 C 201.988281 595.078125 215.992188 591.769531 230.800781 588.265625 C 246.011719 584.664062 261.753906 580.949219 278.34375 582.8125 C 302.566406 585.539062 330.527344 609.597656 338.425781 628.46875 C 341.667969 636.199219 341.484375 642.695312 337.914062 647.242188 C 337.746094 647.4375 337.496094 647.546875 337.246094 647.546875 Z M 337.246094 647.546875 " fill-opacity="1" fill-rule="nonzero"/><path fill="#f9e8de" d="M 539.246094 617.605469 C 531.125 622.710938 518.164062 622.558594 501.035156 620.402344 C 484.195312 589.113281 513.394531 577.195312 513.394531 577.195312 C 531.167969 578.613281 537.757812 578.753906 544.128906 586.46875 C 549.746094 593.367188 550.148438 610.722656 539.246094 617.605469 Z M 539.246094 617.605469 " fill-opacity="1" fill-rule="nonzero"/><path fill="#f9e8de" d="M 586.828125 616.425781 C 572.007812 621.710938 556.667969 623.28125 552.191406 618.804688 C 544.292969 610.945312 540.652344 595.789062 550.371094 586.066406 C 553.347656 583.089844 559.046875 579.628906 565.832031 575.929688 C 569.183594 576.234375 591.308594 579.585938 586.828125 616.425781 Z M 586.828125 616.425781 " fill-opacity="1" fill-rule="nonzero"/><path fill="#563025" d="M 455.371094 614.285156 C 455.328125 614.285156 455.300781 614.285156 455.257812 614.269531 C 454.742188 614.199219 403.335938 607.050781 401.570312 566.820312 C 401.554688 566.347656 401.917969 565.945312 402.40625 565.917969 C 402.863281 565.929688 403.28125 566.265625 403.308594 566.75 C 405.003906 605.523438 454.980469 612.488281 455.480469 612.558594 C 455.953125 612.613281 456.289062 613.058594 456.230469 613.53125 C 456.175781 613.964844 455.800781 614.285156 455.371094 614.285156 Z M 455.371094 614.285156 " fill-opacity="1" fill-rule="nonzero"/><path fill="#efbf62" d="M 568.253906 417.980469 C 568.253906 417.980469 596.203125 365.34375 613.167969 368.125 C 630.132812 370.917969 630.132812 443.816406 630.132812 443.816406 Z M 568.253906 417.980469 " fill-opacity="1" fill-rule="nonzero"/><path fill="#563025" d="M 592.03125 425.03125 C 592.03125 425.03125 602.585938 372.921875 614.542969 375.589844 C 626.5 378.261719 625.960938 436.90625 625.960938 436.90625 Z M 592.03125 425.03125 " fill-opacity="1" fill-rule="nonzero"/><path fill="#efbf62" d="M 513.230469 422.832031 C 513.230469 422.832031 476.503906 375.898438 460.277344 381.613281 C 444.050781 387.328125 456.828125 459.101562 456.828125 459.101562 Z M 513.230469 422.832031 " fill-opacity="1" fill-rule="nonzero"/><path fill="#563025" d="M 491.050781 433.945312 C 491.050781 433.945312 471.542969 384.492188 460.238281 389.207031 C 448.933594 393.921875 459.734375 451.578125 459.734375 451.578125 Z M 491.050781 433.945312 " fill-opacity="1" fill-rule="nonzero"/><path fill="#efbf62" d="M 553.792969 574.773438 C 460.179688 583.035156 443.785156 487.859375 456.203125 453.59375 C 461.167969 439.894531 475.492188 429.550781 490.882812 422.066406 C 521.65625 407.117188 557.226562 403.976562 590.140625 413.304688 C 606.601562 417.980469 622.511719 425.65625 629.796875 438.269531 C 648.011719 469.824219 648.542969 566.402344 554.929688 574.664062 Z M 553.792969 574.773438 " fill-opacity="1" fill-rule="nonzero"/><path fill="#563025" d="M 565.832031 576.792969 C 565.457031 576.792969 565.109375 576.542969 565 576.164062 C 564.859375 575.707031 565.125 575.21875 565.582031 575.09375 C 598.550781 565.472656 609.507812 552.011719 609.621094 551.882812 C 609.914062 551.507812 610.46875 551.453125 610.84375 551.746094 C 611.21875 552.039062 611.289062 552.582031 610.984375 552.957031 C 610.539062 553.527344 599.652344 566.960938 566.070312 576.761719 C 566 576.792969 565.917969 576.792969 565.832031 576.792969 Z M 565.832031 576.792969 " fill-opacity="1" fill-rule="nonzero"/><path fill="#563025" d="M 542.679688 576.152344 C 505.929688 576.152344 484.652344 559.058594 473.03125 543.929688 C 449.625 513.488281 448.667969 471.851562 455.382812 453.300781 C 455.550781 452.855469 456.039062 452.621094 456.496094 452.785156 C 456.941406 452.953125 457.175781 453.441406 457.011719 453.898438 C 450.417969 472.089844 451.378906 512.945312 474.390625 542.875 C 492.316406 566.179688 519.738281 576.929688 553.707031 573.914062 L 554.847656 573.816406 C 555.320312 573.773438 555.75 574.121094 555.792969 574.609375 C 555.835938 575.082031 555.488281 575.511719 555 575.554688 L 553.859375 575.652344 C 549.996094 575.984375 546.253906 576.152344 542.679688 576.152344 Z M 542.679688 576.152344 " fill-opacity="1" fill-rule="nonzero"/><path fill="#563025" d="M 568.335938 543.066406 C 554.402344 543.066406 549.328125 526.144531 549.285156 525.964844 C 549.148438 525.503906 549.410156 525.015625 549.871094 524.890625 C 550.34375 524.753906 550.816406 525.03125 550.941406 525.476562 C 550.953125 525.519531 552.304688 530.066406 555.460938 534.25 C 559.601562 539.730469 564.761719 542.054688 570.824219 541.148438 C 575.109375 540.507812 578.765625 538.769531 581.699219 536.003906 C 582.046875 535.667969 582.589844 535.683594 582.921875 536.03125 C 583.257812 536.378906 583.242188 536.921875 582.894531 537.253906 C 579.695312 540.273438 575.734375 542.164062 571.089844 542.859375 C 570.128906 543 569.210938 543.066406 568.335938 543.066406 Z M 568.335938 543.066406 " fill-opacity="1" fill-rule="nonzero"/><path fill="#563025" d="M 531.652344 546.28125 C 528.371094 546.28125 525.3125 545.640625 522.519531 544.375 C 522.085938 544.179688 521.890625 543.664062 522.085938 543.222656 C 522.28125 542.789062 522.796875 542.59375 523.242188 542.789062 C 525.964844 544.027344 529.011719 544.613281 532.265625 544.527344 C 538.382812 544.363281 543.070312 541.175781 546.183594 535.058594 C 548.5625 530.386719 549.089844 525.683594 549.089844 525.628906 C 549.148438 525.15625 549.5625 524.808594 550.050781 524.863281 C 550.523438 524.921875 550.871094 525.335938 550.816406 525.824219 C 550.789062 526.019531 548.492188 545.847656 532.308594 546.28125 C 532.097656 546.28125 531.875 546.28125 531.652344 546.28125 Z M 531.652344 546.28125 " fill-opacity="1" fill-rule="nonzero"/><path fill="#563025" d="M 548.1875 511.527344 C 548.132812 511.527344 548.074219 511.542969 548.035156 511.542969 C 547.980469 511.542969 547.921875 511.542969 547.882812 511.554688 C 541.582031 512.125 532.335938 513.351562 532.070312 516.117188 C 531.808594 518.941406 540.59375 529.21875 550.191406 528.367188 L 550.355469 528.355469 C 559.9375 527.507812 566.792969 515.851562 566.042969 513.113281 C 565.304688 510.429688 554.542969 510.972656 548.1875 511.527344 Z M 548.1875 511.527344 " fill-opacity="1" fill-rule="nonzero"/><path fill="#563025" d="M 581.476562 485.96875 C 572.535156 485.96875 566.542969 480.128906 566.445312 480.042969 C 566.109375 479.710938 566.109375 479.152344 566.445312 478.820312 C 566.777344 478.484375 567.335938 478.472656 567.667969 478.820312 C 568.210938 479.363281 581.226562 491.949219 597.691406 477.09375 C 598.039062 476.777344 598.59375 476.804688 598.914062 477.164062 C 599.234375 477.527344 599.207031 478.070312 598.84375 478.390625 C 592.460938 484.132812 586.496094 485.96875 581.476562 485.96875 Z M 581.476562 485.96875 " fill-opacity="1" fill-rule="nonzero"/><path fill="#563025" d="M 511.753906 492.949219 C 502.816406 492.949219 496.820312 487.109375 496.722656 487.023438 C 496.390625 486.691406 496.390625 486.132812 496.722656 485.800781 C 497.058594 485.46875 497.613281 485.46875 497.949219 485.800781 C 498.488281 486.34375 511.492188 498.929688 527.96875 484.078125 C 528.316406 483.757812 528.871094 483.785156 529.191406 484.144531 C 529.511719 484.507812 529.484375 485.050781 529.125 485.371094 C 522.742188 491.097656 516.773438 492.949219 511.753906 492.949219 Z M 511.753906 492.949219 " fill-opacity="1" fill-rule="nonzero"/><path fill="#563025" d="M 575.371094 363.800781 C 575.261719 363.800781 575.136719 363.785156 575.023438 363.769531 L 559.242188 361.296875 C 558.339844 361.15625 557.613281 360.488281 557.40625 359.597656 C 557.199219 358.710938 557.53125 357.792969 558.269531 357.25 L 573.691406 345.984375 L 559.449219 342.996094 C 558.242188 342.746094 557.460938 341.546875 557.710938 340.339844 C 557.960938 339.128906 559.171875 338.351562 560.367188 338.601562 L 579.558594 342.621094 C 580.433594 342.800781 581.101562 343.480469 581.296875 344.34375 C 581.476562 345.207031 581.144531 346.109375 580.417969 346.636719 L 565.304688 357.679688 L 575.734375 359.320312 C 576.957031 359.515625 577.804688 360.671875 577.609375 361.894531 C 577.429688 363.007812 576.46875 363.800781 575.371094 363.800781 Z M 575.371094 363.800781 " fill-opacity="1" fill-rule="nonzero"/><path fill="#563025" d="M 548.394531 333.746094 C 548.285156 333.746094 548.160156 333.734375 548.046875 333.71875 L 526.46875 330.339844 C 525.5625 330.199219 524.839844 329.535156 524.632812 328.644531 C 524.421875 327.753906 524.757812 326.835938 525.492188 326.292969 L 548.074219 309.800781 L 526.785156 305.335938 C 525.578125 305.085938 524.796875 303.890625 525.050781 302.679688 C 525.300781 301.46875 526.496094 300.691406 527.703125 300.941406 L 553.945312 306.449219 C 554.820312 306.628906 555.488281 307.3125 555.683594 308.171875 C 555.875 309.035156 555.527344 309.9375 554.804688 310.46875 L 532.53125 326.738281 L 548.757812 329.28125 C 549.980469 329.476562 550.828125 330.632812 550.632812 331.855469 C 550.441406 332.953125 549.480469 333.746094 548.394531 333.746094 Z M 548.394531 333.746094 " fill-opacity="1" fill-rule="nonzero"/><path fill="#563025" d="M 537.007812 383.742188 C 536.925781 383.742188 536.839844 383.742188 536.757812 383.726562 L 529.375 382.574219 C 528.734375 382.476562 528.207031 381.988281 528.050781 381.363281 C 527.898438 380.722656 528.136719 380.070312 528.664062 379.679688 L 534.867188 375.148438 L 529.429688 374.007812 C 528.554688 373.824219 527.996094 372.964844 528.175781 372.101562 C 528.359375 371.226562 529.191406 370.667969 530.082031 370.851562 L 539.066406 372.726562 C 539.691406 372.851562 540.179688 373.339844 540.304688 373.964844 C 540.441406 374.589844 540.191406 375.230469 539.675781 375.605469 L 533.683594 379.972656 L 537.230469 380.527344 C 538.105469 380.667969 538.703125 381.488281 538.578125 382.363281 C 538.46875 383.171875 537.785156 383.742188 537.007812 383.742188 Z M 537.007812 383.742188 " fill-opacity="1" fill-rule="nonzero"/><g clip-path="url(#bb986d09d3)"><path stroke-linecap="round" transform="matrix(0.399075, 0, 0, 0.401042, 406.476535, 198.530693)" fill="none" stroke-linejoin="round" d="M 19.899622 94.121478 C 23.893236 95.455893 28.39584 94.170179 31.635758 91.589011 C 34.84631 88.939662 36.931212 85.06304 38.007922 81.079275 C 41.766617 67.676684 31.449781 38.777346 13.478517 48.605263 C -1.722667 56.826039 5.42277 89.202649 19.899622 94.121478 Z M 19.899622 94.121478 " stroke="#eb7e44" stroke-width="10" stroke-opacity="1" stroke-miterlimit="10"/></g><path stroke-linecap="round" transform="matrix(0.399075, 0, 0, 0.401042, 406.476535, 198.530693)" fill="none" stroke-linejoin="round" d="M 65.943645 84.196157 C 69.927471 85.530572 74.430075 84.254599 77.679781 81.663691 C 80.880545 79.014341 82.965447 75.14746 84.042156 71.153955 C 87.800852 57.761104 77.484015 28.861766 59.512751 38.689683 C 44.321356 46.900719 51.457005 79.277328 65.943645 84.196157 Z M 65.943645 84.196157 " stroke="#eb7e44" stroke-width="10" stroke-opacity="1" stroke-miterlimit="10"/><path stroke-linecap="round" transform="matrix(0.399075, 0, 0, 0.401042, 406.476535, 198.530693)" fill="none" stroke-linejoin="round" d="M 111.224182 74.524083 C 100.721369 55.228637 93.223554 34.326049 89.220151 12.722162 C 89.122268 12.225409 89.024386 11.826059 89.220151 11.329306 C 89.425705 10.72541 90.022789 10.326059 90.521991 10.024111 C 97.824041 5.923464 106.623695 3.420218 114.620712 6.128009 C 122.519846 8.82606 128.627727 17.826056 125.720611 25.725403 C 123.723803 31.228648 118.320678 34.725399 113.025224 37.121502 C 108.023418 39.420203 102.52241 41.329293 97.226956 40.121501 " stroke="#eb7e44" stroke-width="10" stroke-opacity="1" stroke-miterlimit="10"/><path stroke-linecap="round" transform="matrix(0.399075, 0, 0, 0.401042, 406.476535, 198.530693)" fill="none" stroke-linejoin="round" d="M 144.915408 34.676698 C 143.623357 33.381244 141.323113 33.381244 139.717837 34.179945 C 138.014678 34.978646 136.820509 36.576048 135.822105 38.076047 C 134.118946 40.774098 133.02266 44.475395 135.11735 46.881238 C 136.115753 47.972147 137.515476 48.47864 138.915199 48.780588 C 141.920198 49.472146 145.120962 49.374744 148.223844 49.774094 C 152.217458 50.280587 156.22086 51.780587 159.118188 54.478638 C 162.015516 57.176688 163.914441 61.277336 163.317356 65.280581 C 162.416835 71.377981 156.22086 75.478628 150.220651 76.481875 C 146.71645 77.07603 142.223634 76.374732 140.921794 73.072785 " stroke="#eb7e44" stroke-width="10" stroke-opacity="1" stroke-miterlimit="10"/></svg>